<svg width="108" height="108" viewBox="0 0 108 108" fill="none" xmlns="http://www.w3.org/2000/svg">
<circle cx="54" cy="54" r="54" fill="#3AA6B9"/>
<path d="M41.5254 28C41.7574 27.368 42.0974 26.788 42.5454 26.26C43.0014 25.732 43.5534 25.308 44.2014 24.988C44.8494 24.66 45.5814 24.496 46.3974 24.496C47.8374 24.496 48.9774 24.912 49.8174 25.744C50.6574 26.568 51.0774 27.64 51.0774 28.96C51.0774 29.728 50.9334 30.396 50.6454 30.964C50.3654 31.532 49.9974 32.044 49.5414 32.5C49.0934 32.956 48.6054 33.404 48.0774 33.844L46.2414 35.356C45.7854 35.74 45.3774 36.112 45.0174 36.472C44.6574 36.832 44.3734 37.164 44.1654 37.468C43.9574 37.764 43.8494 38.016 43.8414 38.224L43.7934 40.012H42.3414C42.0934 39.748 41.8654 39.484 41.6574 39.22C41.4494 38.948 41.3454 38.644 41.3454 38.308C41.3454 37.852 41.4854 37.376 41.7654 36.88C42.0534 36.384 42.4254 35.892 42.8814 35.404C43.3454 34.908 43.8334 34.436 44.3454 33.988L46.6974 31.996C47.2654 31.524 47.7094 31.056 48.0294 30.592C48.3494 30.12 48.5094 29.568 48.5094 28.936C48.5094 28.208 48.2894 27.628 47.8494 27.196C47.4174 26.764 46.8614 26.548 46.1814 26.548C45.5174 26.548 44.9374 26.772 44.4414 27.22C43.9534 27.66 43.5774 28.2 43.3134 28.84C43.0094 28.824 42.6774 28.748 42.3174 28.612C41.9574 28.468 41.6934 28.264 41.5254 28ZM51.4494 37.828C51.4494 38.676 51.3254 39.252 51.0774 39.556C50.8294 39.86 50.4014 40.012 49.7934 40.012H42.5094L41.7894 38.38C42.2694 38.244 42.8374 38.136 43.4934 38.056C44.1574 37.968 44.8094 37.908 45.4494 37.876C46.0974 37.844 46.6334 37.828 47.0574 37.828H51.4494ZM53.6103 28.264C53.6103 27.536 53.7743 26.892 54.1023 26.332C54.4303 25.764 54.8743 25.316 55.4343 24.988C56.0023 24.66 56.6423 24.496 57.3543 24.496C58.0663 24.496 58.7023 24.66 59.2623 24.988C59.8303 25.316 60.2743 25.764 60.5943 26.332C60.9223 26.892 61.0863 27.536 61.0863 28.264C61.0863 28.984 60.9223 29.628 60.5943 30.196C60.2743 30.764 59.8303 31.212 59.2623 31.54C58.7023 31.868 58.0663 32.032 57.3543 32.032C56.6423 32.032 56.0023 31.868 55.4343 31.54C54.8743 31.212 54.4303 30.764 54.1023 30.196C53.7743 29.628 53.6103 28.984 53.6103 28.264ZM55.5063 28.264C55.5063 28.864 55.6703 29.36 55.9983 29.752C56.3343 30.144 56.7863 30.34 57.3543 30.34C57.9143 30.34 58.3583 30.144 58.6863 29.752C59.0143 29.36 59.1783 28.864 59.1783 28.264C59.1783 27.664 59.0143 27.168 58.6863 26.776C58.3583 26.384 57.9143 26.188 57.3543 26.188C56.7863 26.188 56.3343 26.384 55.9983 26.776C55.6703 27.168 55.5063 27.664 55.5063 28.264ZM8.49569 56.056C8.49569 55.504 8.58769 55.104 8.77169 54.856C8.95569 54.6 9.30769 54.472 9.82769 54.472H10.7637L10.9197 54.64V67.096C10.9197 67.416 10.9957 67.672 11.1477 67.864C11.2997 68.048 11.5557 68.14 11.9157 68.14H13.5717C13.6997 68.516 13.7637 68.932 13.7637 69.388C13.7637 69.476 13.7597 69.568 13.7517 69.664C13.7517 69.76 13.7397 69.848 13.7157 69.928C13.3157 69.976 12.8877 70.016 12.4317 70.048C11.9757 70.088 11.5117 70.108 11.0397 70.108C10.2237 70.108 9.59569 69.904 9.15569 69.496C8.71569 69.08 8.49569 68.46 8.49569 67.636V56.056ZM13.8837 58.132C13.9637 58.428 14.0037 58.728 14.0037 59.032C14.0037 59.368 13.9637 59.676 13.8837 59.956L9.95969 59.908L6.73169 59.956C6.66769 59.66 6.63569 59.352 6.63569 59.032C6.63569 58.744 6.66769 58.444 6.73169 58.132L9.99569 58.18L13.8837 58.132ZM23.3178 58.12C23.3178 58.456 23.2698 58.848 23.1738 59.296C23.0778 59.736 22.9218 60.124 22.7058 60.46C22.5538 60.42 22.3938 60.396 22.2258 60.388C22.0578 60.372 21.8938 60.36 21.7338 60.352C21.2778 60.352 20.8778 60.448 20.5338 60.64C20.1978 60.824 19.9098 61.068 19.6698 61.372C19.4378 61.668 19.2378 61.996 19.0698 62.356C18.9018 62.716 18.7658 63.068 18.6618 63.412L18.3018 62.956C18.3178 62.388 18.3938 61.816 18.5298 61.24C18.6658 60.656 18.8738 60.12 19.1538 59.632C19.4418 59.136 19.8218 58.74 20.2938 58.444C20.7738 58.14 21.3538 57.988 22.0338 57.988C22.2498 57.988 22.4578 58 22.6578 58.024C22.8658 58.04 23.0858 58.072 23.3178 58.12ZM15.7938 59.296C15.8498 59.08 15.9658 58.84 16.1418 58.576C16.3178 58.304 16.5018 58.104 16.6938 57.976C17.4938 58.152 18.0898 58.556 18.4818 59.188C18.8738 59.812 19.0978 60.6 19.1538 61.552V70C18.9858 70.032 18.7938 70.056 18.5778 70.072C18.3618 70.088 18.1418 70.096 17.9178 70.096C17.6938 70.096 17.4738 70.088 17.2578 70.072C17.0418 70.056 16.8498 70.032 16.6818 70V61.768C16.6818 61.128 16.5858 60.604 16.3938 60.196C16.2018 59.788 16.0018 59.488 15.7938 59.296ZM28.5081 70C28.3401 70.032 28.1481 70.056 27.9321 70.072C27.7161 70.088 27.4961 70.096 27.2721 70.096C27.0481 70.096 26.8281 70.088 26.6121 70.072C26.3961 70.056 26.2001 70.032 26.0241 70V61.204C26.0241 60.78 25.9481 60.468 25.7961 60.268C25.6521 60.06 25.3801 59.956 24.9801 59.956H24.7161C24.6441 59.668 24.6081 59.376 24.6081 59.08C24.6081 58.936 24.6161 58.792 24.6321 58.648C24.6481 58.496 24.6761 58.34 24.7161 58.18C25.0201 58.14 25.3041 58.112 25.5681 58.096C25.8401 58.08 26.0641 58.072 26.2401 58.072H26.5641C27.1641 58.072 27.6361 58.264 27.9801 58.648C28.3321 59.024 28.5081 59.54 28.5081 60.196V70ZM25.2921 54.952C25.2921 54.776 25.3081 54.588 25.3401 54.388C25.3801 54.188 25.4361 54.016 25.5081 53.872C25.6521 53.792 25.8481 53.724 26.0961 53.668C26.3521 53.612 26.5961 53.584 26.8281 53.584C27.0521 53.584 27.2961 53.612 27.5601 53.668C27.8241 53.724 28.0201 53.792 28.1481 53.872C28.2201 54.016 28.2721 54.192 28.3041 54.4C28.3441 54.6 28.3641 54.784 28.3641 54.952C28.3641 55.12 28.3441 55.304 28.3041 55.504C28.2721 55.704 28.2201 55.876 28.1481 56.02C28.0361 56.1 27.8441 56.172 27.5721 56.236C27.3001 56.292 27.0521 56.32 26.8281 56.32C26.5961 56.32 26.3521 56.292 26.0961 56.236C25.8401 56.18 25.6441 56.108 25.5081 56.02C25.4361 55.876 25.3801 55.704 25.3401 55.504C25.3081 55.304 25.2921 55.12 25.2921 54.952ZM33.2958 58.048C33.8078 58.048 34.1678 58.204 34.3758 58.516C34.5838 58.828 34.6878 59.26 34.6878 59.812V70C34.5278 70.032 34.3398 70.056 34.1238 70.072C33.9078 70.088 33.6878 70.096 33.4638 70.096C33.2398 70.096 33.0198 70.088 32.8038 70.072C32.5878 70.056 32.3918 70.032 32.2158 70V58.216L32.3718 58.048H33.2958ZM38.7198 62.488C38.7198 61.64 38.5998 61.044 38.3598 60.7C38.1198 60.348 37.7638 60.172 37.2918 60.172C36.8918 60.172 36.4638 60.3 36.0078 60.556C35.5598 60.804 35.1438 61.136 34.7598 61.552C34.3758 61.968 34.0718 62.432 33.8478 62.944V60.532C34.1998 60.036 34.5998 59.596 35.0478 59.212C35.5038 58.82 35.9878 58.512 36.4998 58.288C37.0198 58.056 37.5478 57.94 38.0838 57.94C38.7798 57.94 39.3598 58.108 39.8238 58.444C40.2878 58.772 40.6318 59.22 40.8558 59.788C41.0878 60.348 41.2038 60.972 41.2038 61.66V70C41.0278 70.032 40.8318 70.056 40.6158 70.072C40.3998 70.088 40.1838 70.096 39.9678 70.096C39.7438 70.096 39.5238 70.088 39.3078 70.072C39.0918 70.056 38.8958 70.032 38.7198 70V62.488ZM45.2238 62.464C45.2238 61.616 45.0998 61.024 44.8518 60.688C44.6118 60.344 44.2558 60.172 43.7838 60.172C43.4078 60.172 42.9958 60.296 42.5478 60.544C42.1078 60.784 41.6878 61.116 41.2878 61.54C40.8878 61.964 40.5558 62.452 40.2918 63.004V60.244C40.6918 59.812 41.1238 59.424 41.5878 59.08C42.0518 58.728 42.5438 58.452 43.0638 58.252C43.5838 58.044 44.1078 57.94 44.6358 57.94C45.3318 57.94 45.9078 58.108 46.3638 58.444C46.8198 58.78 47.1558 59.232 47.3718 59.8C47.5958 60.36 47.7078 60.992 47.7078 61.696V67.468C47.7078 67.884 47.7358 68.28 47.7918 68.656C47.8478 69.024 47.9518 69.348 48.1038 69.628C47.9198 69.78 47.6878 69.904 47.4078 70C47.1358 70.104 46.8518 70.156 46.5558 70.156C46.0678 70.156 45.7238 70.024 45.5238 69.76C45.3238 69.496 45.2238 69.104 45.2238 68.584V62.464ZM52.0848 64.864V63.064H57.9048V62.752C57.9048 62.192 57.8248 61.68 57.6648 61.216C57.5128 60.744 57.2608 60.368 56.9088 60.088C56.5648 59.808 56.1048 59.668 55.5287 59.668C54.7128 59.668 54.1008 60.012 53.6928 60.7C53.2848 61.388 53.0808 62.336 53.0808 63.544V64.3C53.0808 65.052 53.1568 65.732 53.3088 66.34C53.4688 66.94 53.7488 67.416 54.1488 67.768C54.5488 68.112 55.1168 68.284 55.8528 68.284C56.4528 68.284 57.0328 68.2 57.5928 68.032C58.1528 67.856 58.6848 67.636 59.1888 67.372C59.3968 67.572 59.5688 67.824 59.7048 68.128C59.8488 68.424 59.9368 68.7 59.9688 68.956C59.4008 69.372 58.7168 69.704 57.9168 69.952C57.1248 70.192 56.3088 70.312 55.4688 70.312C54.5168 70.312 53.7208 70.144 53.0808 69.808C52.4488 69.472 51.9448 69.012 51.5688 68.428C51.2008 67.836 50.9328 67.168 50.7648 66.424C50.6048 65.68 50.5248 64.904 50.5248 64.096C50.5248 62.904 50.7088 61.836 51.0768 60.892C51.4528 59.948 52.0128 59.204 52.7568 58.66C53.5008 58.116 54.4248 57.844 55.5287 57.844C56.5688 57.844 57.4408 58.072 58.1448 58.528C58.8568 58.984 59.3928 59.6 59.7528 60.376C60.1128 61.144 60.2928 62.004 60.2928 62.956C60.2928 63.34 60.2768 63.672 60.2448 63.952C60.2208 64.224 60.1768 64.528 60.1128 64.864H52.0848ZM62.2362 69.112C62.2522 68.84 62.3402 68.536 62.5002 68.2C62.6602 67.856 62.8442 67.584 63.0522 67.384C63.5562 67.656 64.0962 67.904 64.6722 68.128C65.2482 68.344 65.8322 68.452 66.4242 68.452C67.0802 68.452 67.6002 68.312 67.9842 68.032C68.3682 67.752 68.5642 67.392 68.5722 66.952C68.5722 66.616 68.4442 66.304 68.1882 66.016C67.9322 65.728 67.5562 65.496 67.0602 65.32L65.6682 64.804C65.1162 64.604 64.6082 64.352 64.1442 64.048C63.6882 63.744 63.3202 63.376 63.0402 62.944C62.7602 62.504 62.6202 61.984 62.6202 61.384C62.6202 60.648 62.8042 60.016 63.1722 59.488C63.5482 58.96 64.0562 58.556 64.6962 58.276C65.3442 57.988 66.0682 57.844 66.8682 57.844C67.5162 57.844 68.2042 57.928 68.9322 58.096C69.6682 58.264 70.2842 58.468 70.7802 58.708C70.7882 58.908 70.7642 59.128 70.7082 59.368C70.6522 59.6 70.5642 59.82 70.4442 60.028C70.3322 60.228 70.2042 60.396 70.0602 60.532C69.6362 60.332 69.1442 60.152 68.5842 59.992C68.0242 59.824 67.4442 59.74 66.8442 59.74C66.3242 59.74 65.9082 59.868 65.5962 60.124C65.2842 60.372 65.1282 60.708 65.1282 61.132C65.1282 61.468 65.2482 61.748 65.4882 61.972C65.7362 62.196 66.1082 62.4 66.6042 62.584L68.0802 63.124C68.9842 63.452 69.7162 63.904 70.2762 64.48C70.8442 65.056 71.1282 65.808 71.1282 66.736C71.1282 67.848 70.6962 68.724 69.8322 69.364C68.9682 69.996 67.8322 70.312 66.4242 70.312C65.5842 70.312 64.8042 70.192 64.0842 69.952C63.3722 69.712 62.7562 69.432 62.2362 69.112ZM74.3082 56.056C74.3082 55.504 74.4002 55.104 74.5842 54.856C74.7682 54.6 75.1202 54.472 75.6402 54.472H76.5762L76.7322 54.64V67.096C76.7322 67.416 76.8082 67.672 76.9602 67.864C77.1122 68.048 77.3682 68.14 77.7282 68.14H79.3842C79.5122 68.516 79.5762 68.932 79.5762 69.388C79.5762 69.476 79.5722 69.568 79.5642 69.664C79.5642 69.76 79.5522 69.848 79.5282 69.928C79.1282 69.976 78.7002 70.016 78.2442 70.048C77.7882 70.088 77.3242 70.108 76.8522 70.108C76.0362 70.108 75.4082 69.904 74.9682 69.496C74.5282 69.08 74.3082 68.46 74.3082 67.636V56.056ZM79.6962 58.132C79.7762 58.428 79.8162 58.728 79.8162 59.032C79.8162 59.368 79.7762 59.676 79.6962 59.956L75.7722 59.908L72.5442 59.956C72.4802 59.66 72.4482 59.352 72.4482 59.032C72.4482 58.744 72.4802 58.444 72.5442 58.132L75.8082 58.18L79.6962 58.132ZM89.1303 58.12C89.1303 58.456 89.0823 58.848 88.9863 59.296C88.8903 59.736 88.7343 60.124 88.5183 60.46C88.3663 60.42 88.2063 60.396 88.0383 60.388C87.8703 60.372 87.7063 60.36 87.5463 60.352C87.0903 60.352 86.6903 60.448 86.3463 60.64C86.0103 60.824 85.7223 61.068 85.4823 61.372C85.2503 61.668 85.0503 61.996 84.8823 62.356C84.7143 62.716 84.5783 63.068 84.4743 63.412L84.1143 62.956C84.1303 62.388 84.2063 61.816 84.3423 61.24C84.4783 60.656 84.6863 60.12 84.9663 59.632C85.2543 59.136 85.6343 58.74 86.1063 58.444C86.5863 58.14 87.1663 57.988 87.8463 57.988C88.0623 57.988 88.2703 58 88.4703 58.024C88.6783 58.04 88.8983 58.072 89.1303 58.12ZM81.6063 59.296C81.6623 59.08 81.7783 58.84 81.9543 58.576C82.1303 58.304 82.3143 58.104 82.5063 57.976C83.3063 58.152 83.9023 58.556 84.2943 59.188C84.6863 59.812 84.9103 60.6 84.9663 61.552V70C84.7983 70.032 84.6063 70.056 84.3903 70.072C84.1743 70.088 83.9543 70.096 83.7303 70.096C83.5063 70.096 83.2863 70.088 83.0703 70.072C82.8543 70.056 82.6623 70.032 82.4943 70V61.768C82.4943 61.128 82.3983 60.604 82.2063 60.196C82.0143 59.788 81.8143 59.488 81.6063 59.296ZM91.4129 64.864V63.064H97.2329V62.752C97.2329 62.192 97.1529 61.68 96.9929 61.216C96.8409 60.744 96.5889 60.368 96.2369 60.088C95.8929 59.808 95.4329 59.668 94.8569 59.668C94.0409 59.668 93.4289 60.012 93.0209 60.7C92.6129 61.388 92.4089 62.336 92.4089 63.544V64.3C92.4089 65.052 92.4849 65.732 92.6369 66.34C92.7969 66.94 93.0769 67.416 93.4769 67.768C93.8769 68.112 94.4449 68.284 95.1809 68.284C95.7809 68.284 96.3609 68.2 96.9209 68.032C97.4809 67.856 98.0129 67.636 98.5169 67.372C98.7249 67.572 98.8969 67.824 99.0329 68.128C99.1769 68.424 99.2649 68.7 99.2969 68.956C98.7289 69.372 98.0449 69.704 97.2449 69.952C96.4529 70.192 95.6369 70.312 94.7969 70.312C93.8449 70.312 93.0489 70.144 92.4089 69.808C91.7769 69.472 91.2729 69.012 90.8969 68.428C90.5289 67.836 90.2609 67.168 90.0929 66.424C89.9329 65.68 89.8529 64.904 89.8529 64.096C89.8529 62.904 90.0369 61.836 90.4049 60.892C90.7809 59.948 91.3409 59.204 92.0849 58.66C92.8289 58.116 93.7529 57.844 94.8569 57.844C95.8969 57.844 96.7689 58.072 97.4729 58.528C98.1849 58.984 98.7209 59.6 99.0809 60.376C99.4409 61.144 99.6209 62.004 99.6209 62.956C99.6209 63.34 99.6049 63.672 99.5729 63.952C99.5489 64.224 99.5049 64.528 99.4409 64.864H91.4129Z" fill="#FEFDF5"/>
</svg>
