<svg width="108" height="108" viewBox="0 0 108 108" fill="none" xmlns="http://www.w3.org/2000/svg">
<circle cx="54" cy="54" r="54" fill="#3AA6B9"/>
<path d="M49.3294 36.328C49.3294 36.648 49.3254 36.956 49.3174 37.252C49.3094 37.54 49.3054 37.852 49.3054 38.188V39.004H46.9054V38.188C46.9054 37.852 46.9014 37.54 46.8934 37.252C46.8854 36.956 46.8814 36.648 46.8814 36.328V31.228C46.8814 30.956 46.8894 30.576 46.9054 30.088C46.9294 29.6 46.9534 29.108 46.9774 28.612C47.0094 28.116 47.0214 27.72 47.0134 27.424L46.9654 24.808C47.1734 24.76 47.3774 24.732 47.5774 24.724C47.7774 24.708 47.9654 24.7 48.1414 24.7C48.3254 24.7 48.5134 24.708 48.7054 24.724C48.9054 24.732 49.1134 24.76 49.3294 24.808V36.328ZM45.5254 37.924C45.6934 37.924 45.9334 37.928 46.2454 37.936C46.5574 37.944 46.7934 37.948 46.9534 37.948H49.2574C49.4254 37.948 49.6694 37.944 49.9894 37.936C50.3094 37.928 50.5494 37.924 50.7094 37.924H52.3654C52.4374 38.26 52.4734 38.604 52.4734 38.956C52.4734 39.284 52.4374 39.632 52.3654 40H43.3294C43.2494 39.656 43.2094 39.308 43.2094 38.956C43.2094 38.588 43.2494 38.244 43.3294 37.924H45.5254ZM42.4774 29.416C43.6374 28.696 44.5934 27.932 45.3454 27.124C46.0974 26.316 46.6374 25.544 46.9654 24.808L47.8894 26.8C47.6814 27.384 47.3414 27.94 46.8694 28.468C46.4054 28.996 45.8774 29.468 45.2854 29.884C44.6934 30.3 44.1094 30.64 43.5334 30.904C43.2694 30.752 43.0414 30.548 42.8494 30.292C42.6654 30.028 42.5414 29.736 42.4774 29.416ZM54.6103 28.264C54.6103 27.536 54.7743 26.892 55.1023 26.332C55.4303 25.764 55.8743 25.316 56.4343 24.988C57.0023 24.66 57.6423 24.496 58.3543 24.496C59.0663 24.496 59.7023 24.66 60.2623 24.988C60.8303 25.316 61.2743 25.764 61.5943 26.332C61.9223 26.892 62.0863 27.536 62.0863 28.264C62.0863 28.984 61.9223 29.628 61.5943 30.196C61.2743 30.764 60.8303 31.212 60.2623 31.54C59.7023 31.868 59.0663 32.032 58.3543 32.032C57.6423 32.032 57.0023 31.868 56.4343 31.54C55.8743 31.212 55.4303 30.764 55.1023 30.196C54.7743 29.628 54.6103 28.984 54.6103 28.264ZM56.5063 28.264C56.5063 28.864 56.6703 29.36 56.9983 29.752C57.3343 30.144 57.7863 30.34 58.3543 30.34C58.9143 30.34 59.3583 30.144 59.6863 29.752C60.0143 29.36 60.1783 28.864 60.1783 28.264C60.1783 27.664 60.0143 27.168 59.6863 26.776C59.3583 26.384 58.9143 26.188 58.3543 26.188C57.7863 26.188 57.3343 26.384 56.9983 26.776C56.6703 27.168 56.5063 27.664 56.5063 28.264ZM9.49569 56.056C9.49569 55.504 9.58769 55.104 9.77169 54.856C9.95569 54.6 10.3077 54.472 10.8277 54.472H11.7637L11.9197 54.64V67.096C11.9197 67.416 11.9957 67.672 12.1477 67.864C12.2997 68.048 12.5557 68.14 12.9157 68.14H14.5717C14.6997 68.516 14.7637 68.932 14.7637 69.388C14.7637 69.476 14.7597 69.568 14.7517 69.664C14.7517 69.76 14.7397 69.848 14.7157 69.928C14.3157 69.976 13.8877 70.016 13.4317 70.048C12.9757 70.088 12.5117 70.108 12.0397 70.108C11.2237 70.108 10.5957 69.904 10.1557 69.496C9.71569 69.08 9.49569 68.46 9.49569 67.636V56.056ZM14.8837 58.132C14.9637 58.428 15.0037 58.728 15.0037 59.032C15.0037 59.368 14.9637 59.676 14.8837 59.956L10.9597 59.908L7.73169 59.956C7.66769 59.66 7.63569 59.352 7.63569 59.032C7.63569 58.744 7.66769 58.444 7.73169 58.132L10.9957 58.18L14.8837 58.132ZM24.3178 58.12C24.3178 58.456 24.2698 58.848 24.1738 59.296C24.0778 59.736 23.9218 60.124 23.7058 60.46C23.5538 60.42 23.3938 60.396 23.2258 60.388C23.0578 60.372 22.8938 60.36 22.7338 60.352C22.2778 60.352 21.8778 60.448 21.5338 60.64C21.1978 60.824 20.9098 61.068 20.6698 61.372C20.4378 61.668 20.2378 61.996 20.0698 62.356C19.9018 62.716 19.7658 63.068 19.6618 63.412L19.3018 62.956C19.3178 62.388 19.3938 61.816 19.5298 61.24C19.6658 60.656 19.8738 60.12 20.1538 59.632C20.4418 59.136 20.8218 58.74 21.2938 58.444C21.7738 58.14 22.3538 57.988 23.0338 57.988C23.2498 57.988 23.4578 58 23.6578 58.024C23.8658 58.04 24.0858 58.072 24.3178 58.12ZM16.7938 59.296C16.8498 59.08 16.9658 58.84 17.1418 58.576C17.3178 58.304 17.5018 58.104 17.6938 57.976C18.4938 58.152 19.0898 58.556 19.4818 59.188C19.8738 59.812 20.0978 60.6 20.1538 61.552V70C19.9858 70.032 19.7938 70.056 19.5778 70.072C19.3618 70.088 19.1418 70.096 18.9178 70.096C18.6938 70.096 18.4738 70.088 18.2578 70.072C18.0418 70.056 17.8498 70.032 17.6818 70V61.768C17.6818 61.128 17.5858 60.604 17.3938 60.196C17.2018 59.788 17.0018 59.488 16.7938 59.296ZM29.5081 70C29.3401 70.032 29.1481 70.056 28.9321 70.072C28.7161 70.088 28.4961 70.096 28.2721 70.096C28.0481 70.096 27.8281 70.088 27.6121 70.072C27.3961 70.056 27.2001 70.032 27.0241 70V61.204C27.0241 60.78 26.9481 60.468 26.7961 60.268C26.6521 60.06 26.3801 59.956 25.9801 59.956H25.7161C25.6441 59.668 25.6081 59.376 25.6081 59.08C25.6081 58.936 25.6161 58.792 25.6321 58.648C25.6481 58.496 25.6761 58.34 25.7161 58.18C26.0201 58.14 26.3041 58.112 26.5681 58.096C26.8401 58.08 27.0641 58.072 27.2401 58.072H27.5641C28.1641 58.072 28.6361 58.264 28.9801 58.648C29.3321 59.024 29.5081 59.54 29.5081 60.196V70ZM26.2921 54.952C26.2921 54.776 26.3081 54.588 26.3401 54.388C26.3801 54.188 26.4361 54.016 26.5081 53.872C26.6521 53.792 26.8481 53.724 27.0961 53.668C27.3521 53.612 27.5961 53.584 27.8281 53.584C28.0521 53.584 28.2961 53.612 28.5601 53.668C28.8241 53.724 29.0201 53.792 29.1481 53.872C29.2201 54.016 29.2721 54.192 29.3041 54.4C29.3441 54.6 29.3641 54.784 29.3641 54.952C29.3641 55.12 29.3441 55.304 29.3041 55.504C29.2721 55.704 29.2201 55.876 29.1481 56.02C29.0361 56.1 28.8441 56.172 28.5721 56.236C28.3001 56.292 28.0521 56.32 27.8281 56.32C27.5961 56.32 27.3521 56.292 27.0961 56.236C26.8401 56.18 26.6441 56.108 26.5081 56.02C26.4361 55.876 26.3801 55.704 26.3401 55.504C26.3081 55.304 26.2921 55.12 26.2921 54.952ZM34.2958 58.048C34.8078 58.048 35.1678 58.204 35.3758 58.516C35.5838 58.828 35.6878 59.26 35.6878 59.812V70C35.5278 70.032 35.3398 70.056 35.1238 70.072C34.9078 70.088 34.6878 70.096 34.4638 70.096C34.2398 70.096 34.0198 70.088 33.8038 70.072C33.5878 70.056 33.3918 70.032 33.2158 70V58.216L33.3718 58.048H34.2958ZM39.7198 62.488C39.7198 61.64 39.5998 61.044 39.3598 60.7C39.1198 60.348 38.7638 60.172 38.2918 60.172C37.8918 60.172 37.4638 60.3 37.0078 60.556C36.5598 60.804 36.1438 61.136 35.7598 61.552C35.3758 61.968 35.0718 62.432 34.8478 62.944V60.532C35.1998 60.036 35.5998 59.596 36.0478 59.212C36.5038 58.82 36.9878 58.512 37.4998 58.288C38.0198 58.056 38.5478 57.94 39.0838 57.94C39.7798 57.94 40.3598 58.108 40.8238 58.444C41.2878 58.772 41.6318 59.22 41.8558 59.788C42.0878 60.348 42.2038 60.972 42.2038 61.66V70C42.0278 70.032 41.8318 70.056 41.6158 70.072C41.3998 70.088 41.1838 70.096 40.9678 70.096C40.7438 70.096 40.5238 70.088 40.3078 70.072C40.0918 70.056 39.8958 70.032 39.7198 70V62.488ZM46.2238 62.464C46.2238 61.616 46.0998 61.024 45.8518 60.688C45.6118 60.344 45.2558 60.172 44.7838 60.172C44.4078 60.172 43.9958 60.296 43.5478 60.544C43.1078 60.784 42.6878 61.116 42.2878 61.54C41.8878 61.964 41.5558 62.452 41.2918 63.004V60.244C41.6918 59.812 42.1238 59.424 42.5878 59.08C43.0518 58.728 43.5438 58.452 44.0638 58.252C44.5838 58.044 45.1078 57.94 45.6358 57.94C46.3318 57.94 46.9078 58.108 47.3638 58.444C47.8198 58.78 48.1558 59.232 48.3718 59.8C48.5958 60.36 48.7078 60.992 48.7078 61.696V67.468C48.7078 67.884 48.7358 68.28 48.7918 68.656C48.8478 69.024 48.9518 69.348 49.1038 69.628C48.9198 69.78 48.6878 69.904 48.4078 70C48.1358 70.104 47.8518 70.156 47.5558 70.156C47.0678 70.156 46.7238 70.024 46.5238 69.76C46.3238 69.496 46.2238 69.104 46.2238 68.584V62.464ZM53.0848 64.864V63.064H58.9048V62.752C58.9048 62.192 58.8248 61.68 58.6648 61.216C58.5128 60.744 58.2608 60.368 57.9088 60.088C57.5648 59.808 57.1048 59.668 56.5287 59.668C55.7128 59.668 55.1008 60.012 54.6928 60.7C54.2848 61.388 54.0808 62.336 54.0808 63.544V64.3C54.0808 65.052 54.1568 65.732 54.3088 66.34C54.4688 66.94 54.7488 67.416 55.1488 67.768C55.5488 68.112 56.1168 68.284 56.8528 68.284C57.4528 68.284 58.0328 68.2 58.5928 68.032C59.1528 67.856 59.6848 67.636 60.1888 67.372C60.3968 67.572 60.5688 67.824 60.7048 68.128C60.8488 68.424 60.9368 68.7 60.9688 68.956C60.4008 69.372 59.7168 69.704 58.9168 69.952C58.1248 70.192 57.3088 70.312 56.4688 70.312C55.5168 70.312 54.7208 70.144 54.0808 69.808C53.4488 69.472 52.9448 69.012 52.5688 68.428C52.2008 67.836 51.9328 67.168 51.7648 66.424C51.6048 65.68 51.5248 64.904 51.5248 64.096C51.5248 62.904 51.7088 61.836 52.0768 60.892C52.4528 59.948 53.0128 59.204 53.7568 58.66C54.5008 58.116 55.4248 57.844 56.5287 57.844C57.5688 57.844 58.4408 58.072 59.1448 58.528C59.8568 58.984 60.3928 59.6 60.7528 60.376C61.1128 61.144 61.2928 62.004 61.2928 62.956C61.2928 63.34 61.2768 63.672 61.2448 63.952C61.2208 64.224 61.1768 64.528 61.1128 64.864H53.0848ZM63.2362 69.112C63.2522 68.84 63.3402 68.536 63.5002 68.2C63.6602 67.856 63.8442 67.584 64.0522 67.384C64.5562 67.656 65.0962 67.904 65.6722 68.128C66.2482 68.344 66.8322 68.452 67.4242 68.452C68.0802 68.452 68.6002 68.312 68.9842 68.032C69.3682 67.752 69.5642 67.392 69.5722 66.952C69.5722 66.616 69.4442 66.304 69.1882 66.016C68.9322 65.728 68.5562 65.496 68.0602 65.32L66.6682 64.804C66.1162 64.604 65.6082 64.352 65.1442 64.048C64.6882 63.744 64.3202 63.376 64.0402 62.944C63.7602 62.504 63.6202 61.984 63.6202 61.384C63.6202 60.648 63.8042 60.016 64.1722 59.488C64.5482 58.96 65.0562 58.556 65.6962 58.276C66.3442 57.988 67.0682 57.844 67.8682 57.844C68.5162 57.844 69.2042 57.928 69.9322 58.096C70.6682 58.264 71.2842 58.468 71.7802 58.708C71.7882 58.908 71.7642 59.128 71.7082 59.368C71.6522 59.6 71.5642 59.82 71.4442 60.028C71.3322 60.228 71.2042 60.396 71.0602 60.532C70.6362 60.332 70.1442 60.152 69.5842 59.992C69.0242 59.824 68.4442 59.74 67.8442 59.74C67.3242 59.74 66.9082 59.868 66.5962 60.124C66.2842 60.372 66.1282 60.708 66.1282 61.132C66.1282 61.468 66.2482 61.748 66.4882 61.972C66.7362 62.196 67.1082 62.4 67.6042 62.584L69.0802 63.124C69.9842 63.452 70.7162 63.904 71.2762 64.48C71.8442 65.056 72.1282 65.808 72.1282 66.736C72.1282 67.848 71.6962 68.724 70.8322 69.364C69.9682 69.996 68.8322 70.312 67.4242 70.312C66.5842 70.312 65.8042 70.192 65.0842 69.952C64.3722 69.712 63.7562 69.432 63.2362 69.112ZM75.3082 56.056C75.3082 55.504 75.4002 55.104 75.5842 54.856C75.7682 54.6 76.1202 54.472 76.6402 54.472H77.5762L77.7322 54.64V67.096C77.7322 67.416 77.8082 67.672 77.9602 67.864C78.1122 68.048 78.3682 68.14 78.7282 68.14H80.3842C80.5122 68.516 80.5762 68.932 80.5762 69.388C80.5762 69.476 80.5722 69.568 80.5642 69.664C80.5642 69.76 80.5522 69.848 80.5282 69.928C80.1282 69.976 79.7002 70.016 79.2442 70.048C78.7882 70.088 78.3242 70.108 77.8522 70.108C77.0362 70.108 76.4082 69.904 75.9682 69.496C75.5282 69.08 75.3082 68.46 75.3082 67.636V56.056ZM80.6962 58.132C80.7762 58.428 80.8162 58.728 80.8162 59.032C80.8162 59.368 80.7762 59.676 80.6962 59.956L76.7722 59.908L73.5442 59.956C73.4802 59.66 73.4482 59.352 73.4482 59.032C73.4482 58.744 73.4802 58.444 73.5442 58.132L76.8082 58.18L80.6962 58.132ZM90.1303 58.12C90.1303 58.456 90.0823 58.848 89.9863 59.296C89.8903 59.736 89.7343 60.124 89.5183 60.46C89.3663 60.42 89.2063 60.396 89.0383 60.388C88.8703 60.372 88.7063 60.36 88.5463 60.352C88.0903 60.352 87.6903 60.448 87.3463 60.64C87.0103 60.824 86.7223 61.068 86.4823 61.372C86.2503 61.668 86.0503 61.996 85.8823 62.356C85.7143 62.716 85.5783 63.068 85.4743 63.412L85.1143 62.956C85.1303 62.388 85.2063 61.816 85.3423 61.24C85.4783 60.656 85.6863 60.12 85.9663 59.632C86.2543 59.136 86.6343 58.74 87.1063 58.444C87.5863 58.14 88.1663 57.988 88.8463 57.988C89.0623 57.988 89.2703 58 89.4703 58.024C89.6783 58.04 89.8983 58.072 90.1303 58.12ZM82.6063 59.296C82.6623 59.08 82.7783 58.84 82.9543 58.576C83.1303 58.304 83.3143 58.104 83.5063 57.976C84.3063 58.152 84.9023 58.556 85.2943 59.188C85.6863 59.812 85.9103 60.6 85.9663 61.552V70C85.7983 70.032 85.6063 70.056 85.3903 70.072C85.1743 70.088 84.9543 70.096 84.7303 70.096C84.5063 70.096 84.2863 70.088 84.0703 70.072C83.8543 70.056 83.6623 70.032 83.4943 70V61.768C83.4943 61.128 83.3983 60.604 83.2063 60.196C83.0143 59.788 82.8143 59.488 82.6063 59.296ZM92.4129 64.864V63.064H98.2329V62.752C98.2329 62.192 98.1529 61.68 97.9929 61.216C97.8409 60.744 97.5889 60.368 97.2369 60.088C96.8929 59.808 96.4329 59.668 95.8569 59.668C95.0409 59.668 94.4289 60.012 94.0209 60.7C93.6129 61.388 93.4089 62.336 93.4089 63.544V64.3C93.4089 65.052 93.4849 65.732 93.6369 66.34C93.7969 66.94 94.0769 67.416 94.4769 67.768C94.8769 68.112 95.4449 68.284 96.1809 68.284C96.7809 68.284 97.3609 68.2 97.9209 68.032C98.4809 67.856 99.0129 67.636 99.5169 67.372C99.7249 67.572 99.8969 67.824 100.033 68.128C100.177 68.424 100.265 68.7 100.297 68.956C99.7289 69.372 99.0449 69.704 98.2449 69.952C97.4529 70.192 96.6369 70.312 95.7969 70.312C94.8449 70.312 94.0489 70.144 93.4089 69.808C92.7769 69.472 92.2729 69.012 91.8969 68.428C91.5289 67.836 91.2609 67.168 91.0929 66.424C90.9329 65.68 90.8529 64.904 90.8529 64.096C90.8529 62.904 91.0369 61.836 91.4049 60.892C91.7809 59.948 92.3409 59.204 93.0849 58.66C93.8289 58.116 94.7529 57.844 95.8569 57.844C96.8969 57.844 97.7689 58.072 98.4729 58.528C99.1849 58.984 99.7209 59.6 100.081 60.376C100.441 61.144 100.621 62.004 100.621 62.956C100.621 63.34 100.605 63.672 100.573 63.952C100.549 64.224 100.505 64.528 100.441 64.864H92.4129Z" fill="#FEFDF5"/>
</svg>
