<svg width="108" height="108" viewBox="0 0 108 108" fill="none" xmlns="http://www.w3.org/2000/svg">
<circle cx="54" cy="54" r="54" fill="#3AA6B9"/>
<path d="M46.2327 36.152C46.2327 35.304 45.9847 34.652 45.4887 34.196C45.0007 33.732 44.3447 33.5 43.5207 33.5C43.2647 33.5 42.9887 33.536 42.6927 33.608C42.3967 33.672 42.1327 33.768 41.9007 33.896C41.6687 33.776 41.4567 33.588 41.2647 33.332C41.0727 33.076 40.9447 32.812 40.8807 32.54C41.3207 32.332 41.8167 32.16 42.3687 32.024C42.9287 31.888 43.5327 31.82 44.1807 31.82C45.0207 31.82 45.7927 31.98 46.4967 32.3C47.2007 32.62 47.7647 33.108 48.1887 33.764C48.6127 34.412 48.8247 35.24 48.8247 36.248C48.8247 37.096 48.6687 37.84 48.3567 38.48C48.0447 39.112 47.6287 39.64 47.1087 40.064C46.5887 40.48 46.0047 40.792 45.3567 41C44.7087 41.208 44.0487 41.312 43.3767 41.312C42.3527 41.312 41.4287 41.164 40.6047 40.868C39.7887 40.564 39.1167 40.188 38.5887 39.74C38.6527 39.444 38.7847 39.14 38.9847 38.828C39.1927 38.516 39.4247 38.26 39.6807 38.06C40.1527 38.412 40.6647 38.704 41.2167 38.936C41.7767 39.16 42.3887 39.272 43.0527 39.272C43.9487 39.272 44.7007 39.008 45.3087 38.48C45.9247 37.952 46.2327 37.176 46.2327 36.152ZM45.2127 31.064C44.9487 31.344 44.6367 31.612 44.2767 31.868C43.9247 32.124 43.5767 32.356 43.2327 32.564C42.8887 32.764 42.5887 32.928 42.3327 33.056L40.8807 32.54L43.8807 29.42C44.0087 29.292 44.1727 29.128 44.3727 28.928C44.5807 28.72 44.7887 28.516 44.9967 28.316C45.2047 28.116 45.3767 27.96 45.5127 27.848L45.4407 27.74C45.1607 27.804 44.7487 27.856 44.2047 27.896C43.6687 27.936 43.1567 27.956 42.6687 27.956H39.2727C39.2087 27.78 39.1687 27.612 39.1527 27.452C39.1367 27.292 39.1287 27.156 39.1287 27.044C39.1287 26.86 39.1407 26.66 39.1647 26.444C39.1967 26.228 39.2567 26.016 39.3447 25.808H47.7087C47.9007 26.168 48.0367 26.48 48.1167 26.744C48.2047 27 48.2487 27.216 48.2487 27.392C48.2487 27.76 48.0767 28.128 47.7327 28.496L45.2127 31.064ZM56.2471 29.264C56.2471 28.536 56.4111 27.892 56.7391 27.332C57.0671 26.764 57.5111 26.316 58.0711 25.988C58.6391 25.66 59.2791 25.496 59.9911 25.496C60.7031 25.496 61.3391 25.66 61.8991 25.988C62.4671 26.316 62.9111 26.764 63.2311 27.332C63.5591 27.892 63.7231 28.536 63.7231 29.264C63.7231 29.984 63.5591 30.628 63.2311 31.196C62.9111 31.764 62.4671 32.212 61.8991 32.54C61.3391 32.868 60.7031 33.032 59.9911 33.032C59.2791 33.032 58.6391 32.868 58.0711 32.54C57.5111 32.212 57.0671 31.764 56.7391 31.196C56.4111 30.628 56.2471 29.984 56.2471 29.264ZM58.1431 29.264C58.1431 29.864 58.3071 30.36 58.6351 30.752C58.9711 31.144 59.4231 31.34 59.9911 31.34C60.5511 31.34 60.9951 31.144 61.3231 30.752C61.6511 30.36 61.8151 29.864 61.8151 29.264C61.8151 28.664 61.6511 28.168 61.3231 27.776C60.9951 27.384 60.5511 27.188 59.9911 27.188C59.4231 27.188 58.9711 27.384 58.6351 27.776C58.3071 28.168 58.1431 28.664 58.1431 29.264ZM8.49569 57.056C8.49569 56.504 8.58769 56.104 8.77169 55.856C8.95569 55.6 9.30769 55.472 9.82769 55.472H10.7637L10.9197 55.64V68.096C10.9197 68.416 10.9957 68.672 11.1477 68.864C11.2997 69.048 11.5557 69.14 11.9157 69.14H13.5717C13.6997 69.516 13.7637 69.932 13.7637 70.388C13.7637 70.476 13.7597 70.568 13.7517 70.664C13.7517 70.76 13.7397 70.848 13.7157 70.928C13.3157 70.976 12.8877 71.016 12.4317 71.048C11.9757 71.088 11.5117 71.108 11.0397 71.108C10.2237 71.108 9.59569 70.904 9.15569 70.496C8.71569 70.08 8.49569 69.46 8.49569 68.636V57.056ZM13.8837 59.132C13.9637 59.428 14.0037 59.728 14.0037 60.032C14.0037 60.368 13.9637 60.676 13.8837 60.956L9.95969 60.908L6.73169 60.956C6.66769 60.66 6.63569 60.352 6.63569 60.032C6.63569 59.744 6.66769 59.444 6.73169 59.132L9.99569 59.18L13.8837 59.132ZM23.3178 59.12C23.3178 59.456 23.2698 59.848 23.1738 60.296C23.0778 60.736 22.9218 61.124 22.7058 61.46C22.5538 61.42 22.3938 61.396 22.2258 61.388C22.0578 61.372 21.8938 61.36 21.7338 61.352C21.2778 61.352 20.8778 61.448 20.5338 61.64C20.1978 61.824 19.9098 62.068 19.6698 62.372C19.4378 62.668 19.2378 62.996 19.0698 63.356C18.9018 63.716 18.7658 64.068 18.6618 64.412L18.3018 63.956C18.3178 63.388 18.3938 62.816 18.5298 62.24C18.6658 61.656 18.8738 61.12 19.1538 60.632C19.4418 60.136 19.8218 59.74 20.2938 59.444C20.7738 59.14 21.3538 58.988 22.0338 58.988C22.2498 58.988 22.4578 59 22.6578 59.024C22.8658 59.04 23.0858 59.072 23.3178 59.12ZM15.7938 60.296C15.8498 60.08 15.9658 59.84 16.1418 59.576C16.3178 59.304 16.5018 59.104 16.6938 58.976C17.4938 59.152 18.0898 59.556 18.4818 60.188C18.8738 60.812 19.0978 61.6 19.1538 62.552V71C18.9858 71.032 18.7938 71.056 18.5778 71.072C18.3618 71.088 18.1418 71.096 17.9178 71.096C17.6938 71.096 17.4738 71.088 17.2578 71.072C17.0418 71.056 16.8498 71.032 16.6818 71V62.768C16.6818 62.128 16.5858 61.604 16.3938 61.196C16.2018 60.788 16.0018 60.488 15.7938 60.296ZM28.5081 71C28.3401 71.032 28.1481 71.056 27.9321 71.072C27.7161 71.088 27.4961 71.096 27.2721 71.096C27.0481 71.096 26.8281 71.088 26.6121 71.072C26.3961 71.056 26.2001 71.032 26.0241 71V62.204C26.0241 61.78 25.9481 61.468 25.7961 61.268C25.6521 61.06 25.3801 60.956 24.9801 60.956H24.7161C24.6441 60.668 24.6081 60.376 24.6081 60.08C24.6081 59.936 24.6161 59.792 24.6321 59.648C24.6481 59.496 24.6761 59.34 24.7161 59.18C25.0201 59.14 25.3041 59.112 25.5681 59.096C25.8401 59.08 26.0641 59.072 26.2401 59.072H26.5641C27.1641 59.072 27.6361 59.264 27.9801 59.648C28.3321 60.024 28.5081 60.54 28.5081 61.196V71ZM25.2921 55.952C25.2921 55.776 25.3081 55.588 25.3401 55.388C25.3801 55.188 25.4361 55.016 25.5081 54.872C25.6521 54.792 25.8481 54.724 26.0961 54.668C26.3521 54.612 26.5961 54.584 26.8281 54.584C27.0521 54.584 27.2961 54.612 27.5601 54.668C27.8241 54.724 28.0201 54.792 28.1481 54.872C28.2201 55.016 28.2721 55.192 28.3041 55.4C28.3441 55.6 28.3641 55.784 28.3641 55.952C28.3641 56.12 28.3441 56.304 28.3041 56.504C28.2721 56.704 28.2201 56.876 28.1481 57.02C28.0361 57.1 27.8441 57.172 27.5721 57.236C27.3001 57.292 27.0521 57.32 26.8281 57.32C26.5961 57.32 26.3521 57.292 26.0961 57.236C25.8401 57.18 25.6441 57.108 25.5081 57.02C25.4361 56.876 25.3801 56.704 25.3401 56.504C25.3081 56.304 25.2921 56.12 25.2921 55.952ZM33.2958 59.048C33.8078 59.048 34.1678 59.204 34.3758 59.516C34.5838 59.828 34.6878 60.26 34.6878 60.812V71C34.5278 71.032 34.3398 71.056 34.1238 71.072C33.9078 71.088 33.6878 71.096 33.4638 71.096C33.2398 71.096 33.0198 71.088 32.8038 71.072C32.5878 71.056 32.3918 71.032 32.2158 71V59.216L32.3718 59.048H33.2958ZM38.7198 63.488C38.7198 62.64 38.5998 62.044 38.3598 61.7C38.1198 61.348 37.7638 61.172 37.2918 61.172C36.8918 61.172 36.4638 61.3 36.0078 61.556C35.5598 61.804 35.1438 62.136 34.7598 62.552C34.3758 62.968 34.0718 63.432 33.8478 63.944V61.532C34.1998 61.036 34.5998 60.596 35.0478 60.212C35.5038 59.82 35.9878 59.512 36.4998 59.288C37.0198 59.056 37.5478 58.94 38.0838 58.94C38.7798 58.94 39.3598 59.108 39.8238 59.444C40.2878 59.772 40.6318 60.22 40.8558 60.788C41.0878 61.348 41.2038 61.972 41.2038 62.66V71C41.0278 71.032 40.8318 71.056 40.6158 71.072C40.3998 71.088 40.1838 71.096 39.9678 71.096C39.7438 71.096 39.5238 71.088 39.3078 71.072C39.0918 71.056 38.8958 71.032 38.7198 71V63.488ZM45.2238 63.464C45.2238 62.616 45.0998 62.024 44.8518 61.688C44.6118 61.344 44.2558 61.172 43.7838 61.172C43.4078 61.172 42.9958 61.296 42.5478 61.544C42.1078 61.784 41.6878 62.116 41.2878 62.54C40.8878 62.964 40.5558 63.452 40.2918 64.004V61.244C40.6918 60.812 41.1238 60.424 41.5878 60.08C42.0518 59.728 42.5438 59.452 43.0638 59.252C43.5838 59.044 44.1078 58.94 44.6358 58.94C45.3318 58.94 45.9078 59.108 46.3638 59.444C46.8198 59.78 47.1558 60.232 47.3718 60.8C47.5958 61.36 47.7078 61.992 47.7078 62.696V68.468C47.7078 68.884 47.7358 69.28 47.7918 69.656C47.8478 70.024 47.9518 70.348 48.1038 70.628C47.9198 70.78 47.6878 70.904 47.4078 71C47.1358 71.104 46.8518 71.156 46.5558 71.156C46.0678 71.156 45.7238 71.024 45.5238 70.76C45.3238 70.496 45.2238 70.104 45.2238 69.584V63.464ZM52.0848 65.864V64.064H57.9048V63.752C57.9048 63.192 57.8248 62.68 57.6648 62.216C57.5128 61.744 57.2608 61.368 56.9088 61.088C56.5648 60.808 56.1048 60.668 55.5287 60.668C54.7128 60.668 54.1008 61.012 53.6928 61.7C53.2848 62.388 53.0808 63.336 53.0808 64.544V65.3C53.0808 66.052 53.1568 66.732 53.3088 67.34C53.4688 67.94 53.7488 68.416 54.1488 68.768C54.5488 69.112 55.1168 69.284 55.8528 69.284C56.4528 69.284 57.0328 69.2 57.5928 69.032C58.1528 68.856 58.6848 68.636 59.1888 68.372C59.3968 68.572 59.5688 68.824 59.7048 69.128C59.8488 69.424 59.9368 69.7 59.9688 69.956C59.4008 70.372 58.7168 70.704 57.9168 70.952C57.1248 71.192 56.3088 71.312 55.4688 71.312C54.5168 71.312 53.7208 71.144 53.0808 70.808C52.4488 70.472 51.9448 70.012 51.5688 69.428C51.2008 68.836 50.9328 68.168 50.7648 67.424C50.6048 66.68 50.5248 65.904 50.5248 65.096C50.5248 63.904 50.7088 62.836 51.0768 61.892C51.4528 60.948 52.0128 60.204 52.7568 59.66C53.5008 59.116 54.4248 58.844 55.5287 58.844C56.5688 58.844 57.4408 59.072 58.1448 59.528C58.8568 59.984 59.3928 60.6 59.7528 61.376C60.1128 62.144 60.2928 63.004 60.2928 63.956C60.2928 64.34 60.2768 64.672 60.2448 64.952C60.2208 65.224 60.1768 65.528 60.1128 65.864H52.0848ZM62.2362 70.112C62.2522 69.84 62.3402 69.536 62.5002 69.2C62.6602 68.856 62.8442 68.584 63.0522 68.384C63.5562 68.656 64.0962 68.904 64.6722 69.128C65.2482 69.344 65.8322 69.452 66.4242 69.452C67.0802 69.452 67.6002 69.312 67.9842 69.032C68.3682 68.752 68.5642 68.392 68.5722 67.952C68.5722 67.616 68.4442 67.304 68.1882 67.016C67.9322 66.728 67.5562 66.496 67.0602 66.32L65.6682 65.804C65.1162 65.604 64.6082 65.352 64.1442 65.048C63.6882 64.744 63.3202 64.376 63.0402 63.944C62.7602 63.504 62.6202 62.984 62.6202 62.384C62.6202 61.648 62.8042 61.016 63.1722 60.488C63.5482 59.96 64.0562 59.556 64.6962 59.276C65.3442 58.988 66.0682 58.844 66.8682 58.844C67.5162 58.844 68.2042 58.928 68.9322 59.096C69.6682 59.264 70.2842 59.468 70.7802 59.708C70.7882 59.908 70.7642 60.128 70.7082 60.368C70.6522 60.6 70.5642 60.82 70.4442 61.028C70.3322 61.228 70.2042 61.396 70.0602 61.532C69.6362 61.332 69.1442 61.152 68.5842 60.992C68.0242 60.824 67.4442 60.74 66.8442 60.74C66.3242 60.74 65.9082 60.868 65.5962 61.124C65.2842 61.372 65.1282 61.708 65.1282 62.132C65.1282 62.468 65.2482 62.748 65.4882 62.972C65.7362 63.196 66.1082 63.4 66.6042 63.584L68.0802 64.124C68.9842 64.452 69.7162 64.904 70.2762 65.48C70.8442 66.056 71.1282 66.808 71.1282 67.736C71.1282 68.848 70.6962 69.724 69.8322 70.364C68.9682 70.996 67.8322 71.312 66.4242 71.312C65.5842 71.312 64.8042 71.192 64.0842 70.952C63.3722 70.712 62.7562 70.432 62.2362 70.112ZM74.3082 57.056C74.3082 56.504 74.4002 56.104 74.5842 55.856C74.7682 55.6 75.1202 55.472 75.6402 55.472H76.5762L76.7322 55.64V68.096C76.7322 68.416 76.8082 68.672 76.9602 68.864C77.1122 69.048 77.3682 69.14 77.7282 69.14H79.3842C79.5122 69.516 79.5762 69.932 79.5762 70.388C79.5762 70.476 79.5722 70.568 79.5642 70.664C79.5642 70.76 79.5522 70.848 79.5282 70.928C79.1282 70.976 78.7002 71.016 78.2442 71.048C77.7882 71.088 77.3242 71.108 76.8522 71.108C76.0362 71.108 75.4082 70.904 74.9682 70.496C74.5282 70.08 74.3082 69.46 74.3082 68.636V57.056ZM79.6962 59.132C79.7762 59.428 79.8162 59.728 79.8162 60.032C79.8162 60.368 79.7762 60.676 79.6962 60.956L75.7722 60.908L72.5442 60.956C72.4802 60.66 72.4482 60.352 72.4482 60.032C72.4482 59.744 72.4802 59.444 72.5442 59.132L75.8082 59.18L79.6962 59.132ZM89.1303 59.12C89.1303 59.456 89.0823 59.848 88.9863 60.296C88.8903 60.736 88.7343 61.124 88.5183 61.46C88.3663 61.42 88.2063 61.396 88.0383 61.388C87.8703 61.372 87.7063 61.36 87.5463 61.352C87.0903 61.352 86.6903 61.448 86.3463 61.64C86.0103 61.824 85.7223 62.068 85.4823 62.372C85.2503 62.668 85.0503 62.996 84.8823 63.356C84.7143 63.716 84.5783 64.068 84.4743 64.412L84.1143 63.956C84.1303 63.388 84.2063 62.816 84.3423 62.24C84.4783 61.656 84.6863 61.12 84.9663 60.632C85.2543 60.136 85.6343 59.74 86.1063 59.444C86.5863 59.14 87.1663 58.988 87.8463 58.988C88.0623 58.988 88.2703 59 88.4703 59.024C88.6783 59.04 88.8983 59.072 89.1303 59.12ZM81.6063 60.296C81.6623 60.08 81.7783 59.84 81.9543 59.576C82.1303 59.304 82.3143 59.104 82.5063 58.976C83.3063 59.152 83.9023 59.556 84.2943 60.188C84.6863 60.812 84.9103 61.6 84.9663 62.552V71C84.7983 71.032 84.6063 71.056 84.3903 71.072C84.1743 71.088 83.9543 71.096 83.7303 71.096C83.5063 71.096 83.2863 71.088 83.0703 71.072C82.8543 71.056 82.6623 71.032 82.4943 71V62.768C82.4943 62.128 82.3983 61.604 82.2063 61.196C82.0143 60.788 81.8143 60.488 81.6063 60.296ZM91.4129 65.864V64.064H97.2329V63.752C97.2329 63.192 97.1529 62.68 96.9929 62.216C96.8409 61.744 96.5889 61.368 96.2369 61.088C95.8929 60.808 95.4329 60.668 94.8569 60.668C94.0409 60.668 93.4289 61.012 93.0209 61.7C92.6129 62.388 92.4089 63.336 92.4089 64.544V65.3C92.4089 66.052 92.4849 66.732 92.6369 67.34C92.7969 67.94 93.0769 68.416 93.4769 68.768C93.8769 69.112 94.4449 69.284 95.1809 69.284C95.7809 69.284 96.3609 69.2 96.9209 69.032C97.4809 68.856 98.0129 68.636 98.5169 68.372C98.7249 68.572 98.8969 68.824 99.0329 69.128C99.1769 69.424 99.2649 69.7 99.2969 69.956C98.7289 70.372 98.0449 70.704 97.2449 70.952C96.4529 71.192 95.6369 71.312 94.7969 71.312C93.8449 71.312 93.0489 71.144 92.4089 70.808C91.7769 70.472 91.2729 70.012 90.8969 69.428C90.5289 68.836 90.2609 68.168 90.0929 67.424C89.9329 66.68 89.8529 65.904 89.8529 65.096C89.8529 63.904 90.0369 62.836 90.4049 61.892C90.7809 60.948 91.3409 60.204 92.0849 59.66C92.8289 59.116 93.7529 58.844 94.8569 58.844C95.8969 58.844 96.7689 59.072 97.4729 59.528C98.1849 59.984 98.7209 60.6 99.0809 61.376C99.4409 62.144 99.6209 63.004 99.6209 63.956C99.6209 64.34 99.6049 64.672 99.5729 64.952C99.5489 65.224 99.5049 65.528 99.4409 65.864H91.4129Z" fill="#FEFDF5"/>
</svg>
