<svg width="390" height="844" viewBox="0 0 390 844" fill="none" xmlns="http://www.w3.org/2000/svg">
<rect width="390" height="844" fill="#FFF5F5"/>
<g opacity="0.2">
<path d="M274.562 688.359C271.603 675.678 278.979 669.051 289.968 670.649C299.418 671.995 306.315 683.259 304.728 693.515C315.246 694.6 325.047 710.671 325.371 721.761C324.5 736.804 311.193 734.361 304.07 725.743C300.243 731.879 298.732 742.009 291.003 743.396C281.063 743.965 270.921 728.384 274.741 718.064C267.849 714.504 258.469 706.813 261.667 697.191C263.826 691.68 269.315 688.597 274.562 688.359Z" fill="#FEACAC"/>
<path d="M71.1104 447.366C82.8682 448.53 86.0167 458.464 80.9707 469.415C76.6549 478.84 64.7769 482.267 56.6039 477.164C52.1511 487.794 35.2186 492.641 25.6958 489.257C13.2193 483.295 19.7612 470.206 29.4683 465.654C25.5448 459.594 17.4532 454.613 18.8708 446.069C21.7255 435.489 38.357 430.12 45.8348 437.578C51.171 431.569 60.8487 424.348 67.9426 430.921C71.8964 435.028 72.6699 441.801 71.1104 447.366Z" fill="#FEACAC"/>
<path d="M239.699 102.325C241.924 115.189 234.183 121.281 223.307 118.909C213.954 116.897 207.718 105.167 209.891 95.0443C199.457 93.2172 190.6 76.4859 190.913 65.3955C192.647 50.4453 205.787 53.8245 212.4 62.9288C216.572 57.0763 218.662 47.0739 226.455 46.2362C236.407 46.372 245.633 62.6389 241.228 72.6677C247.902 76.7081 256.82 85.0467 253.076 94.4229C250.605 99.7706 244.949 102.459 239.699 102.325Z" fill="#FEACAC"/>
<path d="M253.435 720.174C261.835 717.345 267.741 728.849 263.974 736.662C262.142 741.228 257.726 742.94 253.686 744.069C255.108 751.007 253.003 761.027 247.779 765.478C246.197 766.937 244.137 768.332 241.997 767.761C233.962 765.808 231.732 758.731 233.006 750.385C226.61 757.615 212.657 755.712 212.93 743.777C213.306 735.888 218.917 729.255 225.153 726.173C225.666 725.907 227.714 725.437 229.148 725.501C228.977 723.306 229.638 720.656 230.184 719.032C232.517 711.676 240.928 705.816 245.924 713.756C247.346 716.026 247.46 718.88 247.563 721.569C247.517 722.051 247.654 722.901 247.574 723.547C248.701 722.089 252.684 720.224 253.435 720.174Z" fill="#CAD6FF"/>
<path d="M365.017 439.598C373.416 436.77 379.323 448.273 375.556 456.086C373.723 460.652 369.308 462.364 365.267 463.493C366.69 470.431 364.584 480.451 359.361 484.903C357.779 486.361 355.719 487.756 353.579 487.186C345.544 485.232 343.313 478.155 344.588 469.81C338.192 477.039 324.239 475.137 324.512 463.202C324.887 455.313 330.498 448.679 336.735 445.597C337.247 445.331 339.296 444.862 340.73 444.925C340.559 442.731 341.219 440.08 341.765 438.457C344.099 431.1 352.509 425.241 357.505 433.18C358.928 435.451 359.042 438.304 359.144 440.993C359.099 441.475 359.235 442.325 359.156 442.972C360.282 441.513 364.266 439.649 365.017 439.598Z" fill="#CAD6FF"/>
<path d="M45.6275 245.353C54.0267 242.525 59.9334 254.028 56.1663 261.841C54.334 266.407 49.9181 268.119 45.8779 269.248C47.3005 276.186 45.195 286.206 39.9711 290.658C38.3891 292.116 36.3292 293.511 34.1895 292.941C26.1545 290.987 23.9238 283.91 25.1985 275.564C18.8024 282.794 4.84922 280.891 5.12236 268.956C5.49794 261.067 11.1088 254.434 17.3456 251.352C17.8577 251.086 19.9063 250.616 21.3403 250.68C21.1696 248.486 21.8297 245.835 22.376 244.211C24.7091 236.855 33.1197 230.995 38.116 238.935C39.5386 241.205 39.6524 244.059 39.7549 246.748C39.7093 247.23 39.8459 248.08 39.7662 248.727C40.893 247.268 44.8763 245.404 45.6275 245.353Z" fill="#CAD6FF"/>
<path d="M237.056 206.731C245.456 203.902 251.362 215.406 247.595 223.219C245.763 227.785 241.347 229.497 237.307 230.626C238.729 237.564 236.624 247.584 231.4 252.036C229.818 253.494 227.758 254.889 225.618 254.318C217.583 252.365 215.353 245.288 216.627 236.942C210.231 244.172 196.278 242.269 196.551 230.334C196.927 222.445 202.538 215.812 208.775 212.73C209.287 212.464 211.335 211.994 212.769 212.058C212.599 209.864 213.259 207.213 213.805 205.589C216.138 198.233 224.549 192.373 229.545 200.313C230.968 202.583 231.081 205.437 231.184 208.126C231.138 208.608 231.275 209.458 231.195 210.105C232.322 208.646 236.305 206.782 237.056 206.731Z" fill="#CAD6FF"/>
<path d="M253.435 720.174C261.835 717.345 267.741 728.849 263.974 736.662C262.142 741.228 257.726 742.94 253.686 744.069C255.108 751.007 253.003 761.027 247.779 765.478C246.197 766.937 244.137 768.332 241.997 767.761C233.962 765.808 231.732 758.731 233.006 750.385C226.61 757.615 212.657 755.712 212.93 743.777C213.306 735.888 218.917 729.255 225.153 726.173C225.666 725.907 227.714 725.437 229.148 725.501C228.977 723.306 229.638 720.656 230.184 719.032C232.517 711.676 240.928 705.816 245.924 713.756C247.346 716.026 247.46 718.88 247.563 721.569C247.517 722.051 247.654 722.901 247.574 723.547C248.701 722.089 252.684 720.224 253.435 720.174Z" fill="#CAD6FF"/>
<path d="M365.017 439.598C373.416 436.77 379.323 448.273 375.556 456.086C373.723 460.652 369.308 462.364 365.267 463.493C366.69 470.431 364.584 480.451 359.361 484.903C357.779 486.361 355.719 487.756 353.579 487.186C345.544 485.232 343.313 478.155 344.588 469.81C338.192 477.039 324.239 475.137 324.512 463.202C324.887 455.313 330.498 448.679 336.735 445.597C337.247 445.331 339.296 444.862 340.73 444.925C340.559 442.731 341.219 440.08 341.765 438.457C344.099 431.1 352.509 425.241 357.505 433.18C358.928 435.451 359.042 438.304 359.144 440.993C359.099 441.475 359.235 442.325 359.156 442.972C360.282 441.513 364.266 439.649 365.017 439.598Z" fill="#CAD6FF"/>
<path d="M45.6275 245.353C54.0267 242.525 59.9334 254.028 56.1663 261.841C54.334 266.407 49.9181 268.119 45.8779 269.248C47.3005 276.186 45.195 286.206 39.9711 290.658C38.3891 292.116 36.3292 293.511 34.1895 292.941C26.1545 290.987 23.9238 283.91 25.1985 275.564C18.8024 282.794 4.84922 280.891 5.12236 268.956C5.49794 261.067 11.1088 254.434 17.3456 251.352C17.8577 251.086 19.9063 250.616 21.3403 250.68C21.1696 248.486 21.8297 245.835 22.376 244.211C24.7091 236.855 33.1197 230.995 38.116 238.935C39.5386 241.205 39.6524 244.059 39.7549 246.748C39.7093 247.23 39.8459 248.08 39.7662 248.727C40.893 247.268 44.8763 245.404 45.6275 245.353Z" fill="#CAD6FF"/>
<path d="M237.056 206.731C245.456 203.902 251.362 215.406 247.595 223.219C245.763 227.785 241.347 229.497 237.307 230.626C238.729 237.564 236.624 247.584 231.4 252.036C229.818 253.494 227.758 254.889 225.618 254.318C217.583 252.365 215.353 245.288 216.627 236.942C210.231 244.172 196.278 242.269 196.551 230.334C196.927 222.445 202.538 215.812 208.775 212.73C209.287 212.464 211.335 211.994 212.769 212.058C212.599 209.864 213.259 207.213 213.805 205.589C216.138 198.233 224.549 192.373 229.545 200.313C230.968 202.583 231.081 205.437 231.184 208.126C231.138 208.608 231.275 209.458 231.195 210.105C232.322 208.646 236.305 206.782 237.056 206.731Z" fill="#CAD6FF"/>
<path d="M31.8204 644.365C29.1972 651.407 19.9955 649.668 17.6036 643.264C16.0227 639.77 17.279 635.956 18.6672 632.683C14.1788 630.198 9.7596 623.815 9.92284 618.1C9.91207 616.315 10.1729 614.24 11.5452 613.086C16.5949 608.66 21.5601 610.673 25.4784 615.667C24.7085 607.788 32.6654 599.363 39.0376 605.465C43.1528 609.63 43.9872 616.686 42.5748 622.402C42.466 622.878 41.7059 624.486 40.9602 625.417C42.2413 626.391 43.3593 628.149 43.9736 629.321C46.8276 634.535 45.8517 643.088 39.0447 642.505C37.1013 642.334 35.4889 640.995 33.972 639.731C33.7318 639.461 33.2007 639.131 32.8875 638.757C33.124 640.237 32.1652 643.836 31.8204 644.365Z" fill="#FDACFF"/>
<path d="M76.6665 123.034C77.1026 137.768 59.6322 142.844 50.8142 133.672C45.5162 128.911 44.9901 121.076 45.0856 114.079C35.3876 113.669 23.011 106.328 19.192 96.1094C17.89 92.9716 16.8588 89.0831 18.449 85.8356C24.1701 73.5654 34.3685 72.719 44.8647 78.0562C37.8453 64.8475 45.8179 42.9564 61.4356 48.0749C71.6825 51.7747 78.2241 63.4758 79.8416 74.8013C79.9919 75.7365 79.8076 79.2438 79.1623 81.5454C82.1201 82.128 85.3541 84.2373 87.279 85.7596C96.0572 92.4264 100.483 108.367 88.0646 113.362C84.5161 114.78 80.7116 113.847 77.1289 112.96C76.5117 112.697 75.3386 112.586 74.5176 112.203C75.9979 114.603 76.8939 121.795 76.6665 123.034Z" fill="#FADAED"/>
<path d="M231.781 545.18C218.531 544.108 215.823 524.295 224.972 515.531C229.797 510.187 236.874 510.432 243.134 511.275C244.523 500.617 252.407 487.733 261.967 484.596C264.916 483.49 268.509 482.762 271.252 484.859C281.645 492.465 281.329 503.808 275.44 514.828C288.017 508.474 306.794 519.579 300.561 536.273C296.166 547.191 284.99 553.176 274.67 553.767C273.816 553.834 270.693 553.261 268.698 552.307C267.864 555.509 265.633 558.855 264.066 560.819C257.166 569.803 242.415 573.006 239.247 558.777C238.35 554.712 239.587 550.612 240.76 546.752C241.06 546.099 241.284 544.816 241.713 543.95C239.407 545.331 232.867 545.561 231.781 545.18Z" fill="#FADAED"/>
<path d="M104.448 585.635C91.1979 584.563 88.4901 564.75 97.6392 555.986C102.465 550.642 109.541 550.887 115.801 551.73C117.191 541.071 125.074 528.188 134.634 525.051C137.583 523.945 141.177 523.217 143.919 525.314C154.313 532.92 153.996 544.263 148.107 555.283C160.684 548.929 179.462 560.034 173.229 576.728C168.833 587.645 157.657 593.63 147.337 594.222C146.484 594.289 143.36 593.716 141.365 592.761C140.531 595.964 138.3 599.31 136.733 601.274C129.833 610.258 115.082 613.461 111.914 599.232C111.017 595.166 112.254 591.067 113.427 587.207C113.728 586.553 113.951 585.27 114.38 584.405C112.074 585.785 105.534 586.016 104.448 585.635Z" fill="#FADAED"/>
<path d="M152.36 704.185C149.53 705.457 146.318 706.73 143.266 705.653C131.345 700.44 130.533 689.641 135.939 678.112C126.311 675.742 115.712 669.817 113.95 657.947C112.356 649.187 117.209 643.705 125.107 644.816C123.12 635.653 123.88 625.809 132.919 622.079C146.343 616.341 163.323 621.732 159.816 640.95C166.155 637.478 175.772 635.522 181.592 641.001C185.443 647.58 177.114 655.268 172.47 658.349C179.551 661.069 187.834 669.496 187.852 678.309C187.614 681.691 184.627 683.757 182.016 684.834C176.957 687.308 171.367 686.56 166.17 685.191C164.816 693.689 159.687 701.081 152.36 704.185Z" fill="#FFF597"/>
<path d="M77.5989 786.399C77.9046 789.77 78.1033 793.548 76.3149 796.496C68.4581 807.728 58.8893 805.56 50.4363 796.564C45.6825 806.153 37.5811 815.776 26.82 814.319C18.795 813.556 15.4169 806.847 18.5963 798.749C10.1128 798.292 1.81269 794.717 1.12483 784.044C-0.0674467 768.135 9.3638 751.566 25.001 760.698C23.7782 752.972 24.787 742.18 31.1611 737.521C37.9327 735.268 42.2432 746.297 43.6036 752.108C47.9448 745.331 57.5594 738.877 65.187 741.333C68.0454 742.536 68.9931 746.297 69.1918 749.381C69.9102 755.463 67.6938 761.206 65.0494 766.356C72.0197 770.185 76.9722 777.724 77.5989 786.399Z" fill="#FFF597"/>
<path d="M213.749 815.933C214.055 819.304 214.253 823.082 212.465 826.03C204.608 837.263 195.039 835.094 186.586 826.098C181.833 835.687 173.731 845.31 162.97 843.853C154.945 843.091 151.567 836.382 154.746 828.283C146.263 827.826 137.963 824.251 137.275 813.578C136.083 797.669 145.514 781.1 161.151 790.232C159.928 782.506 160.937 771.714 167.311 767.055C174.083 764.802 178.393 775.831 179.754 781.642C184.095 774.866 193.709 768.411 201.337 770.867C204.195 772.07 205.143 775.831 205.342 778.915C206.06 784.997 203.844 790.74 201.199 795.891C208.17 799.719 213.122 807.259 213.749 815.933Z" fill="#FFF597"/>
<path d="M174.849 361.559C175.155 364.93 175.353 368.708 173.565 371.656C165.708 382.889 156.139 380.72 147.686 371.724C142.932 381.313 134.831 390.936 124.07 389.479C116.045 388.717 112.667 382.008 115.846 373.909C107.363 373.452 99.0627 369.877 98.3748 359.204C97.1826 343.295 106.614 326.726 122.251 335.858C121.028 328.132 122.037 317.34 128.411 312.681C135.183 310.428 139.493 321.457 140.854 327.268C145.195 320.492 154.809 314.037 162.437 316.493C165.295 317.696 166.243 321.457 166.442 324.541C167.16 330.623 164.944 336.366 162.299 341.516C169.27 345.345 174.222 352.884 174.849 361.559Z" fill="#FFF597"/>
<path d="M371.396 49.1764C371.702 52.5478 371.901 56.3259 370.112 59.2737C362.255 70.5062 352.687 68.3376 344.234 59.3415C339.48 68.9306 331.378 78.5536 320.617 77.0966C312.592 76.3342 309.214 69.6252 312.394 61.527C303.91 61.0696 295.61 57.4948 294.922 46.8215C293.73 30.9131 303.161 14.3439 318.798 23.4756C317.576 15.7501 318.584 4.95813 324.958 0.299116C331.73 -1.95415 336.041 9.075 337.401 14.8861C341.742 8.10932 351.357 1.65446 358.984 4.11103C361.843 5.31391 362.79 9.075 362.989 12.1584C363.708 18.2405 361.491 23.9838 358.847 29.1342C365.817 32.963 370.77 40.5022 371.396 49.1764Z" fill="#FFF597"/>
<path d="M388.799 794.35C389.105 797.722 389.303 801.5 387.515 804.448C379.658 815.68 370.089 813.511 361.636 804.515C356.882 814.104 348.781 823.727 338.02 822.27C329.995 821.508 326.617 814.799 329.796 806.701C321.313 806.243 313.013 802.669 312.325 791.995C311.133 776.087 320.564 759.518 336.201 768.649C334.978 760.924 335.987 750.132 342.361 745.473C349.133 743.22 353.443 754.249 354.804 760.06C359.145 753.283 368.759 746.828 376.387 749.285C379.245 750.488 380.193 754.249 380.392 757.332C381.11 763.414 378.894 769.158 376.249 774.308C383.22 778.137 388.172 785.676 388.799 794.35Z" fill="#FFF597"/>
<path d="M300.287 320.154C298.968 318.243 297.578 316.041 297.667 313.519C298.637 303.476 305.149 300.826 313.283 302.765C312.93 295.001 314.59 285.83 321.583 282.256C326.688 279.395 330.986 282.052 331.788 288.263C337.069 285.028 343.287 283.753 347.292 289.92C353.362 299.043 353.235 312.964 340.715 313.917C344.052 318.081 347.072 325.022 344.787 330.477C341.452 334.642 335.138 329.76 332.362 326.81C332.018 332.704 328.379 340.586 322.943 342.258C320.811 342.714 318.974 340.833 317.817 339.051C315.337 335.672 314.745 331.283 314.611 327.075C309.111 327.646 303.583 325.138 300.287 320.154Z" fill="#F6BDFF"/>
<path d="M285.955 623.449C284.637 621.537 283.246 619.336 283.336 616.813C284.306 606.771 290.817 604.121 298.951 606.059C298.599 598.295 300.258 589.124 307.251 585.55C312.357 582.689 316.655 585.346 317.457 591.558C322.737 588.323 328.955 587.048 332.96 593.215C339.031 602.338 338.904 616.258 326.383 617.211C329.72 621.375 332.74 628.316 330.455 633.771C327.121 637.937 320.807 633.054 318.031 630.104C317.686 635.998 314.047 643.88 308.612 645.553C306.48 646.009 304.642 644.127 303.485 642.346C301.005 638.966 300.413 634.577 300.279 630.369C294.78 630.94 289.251 628.433 285.955 623.449Z" fill="#F6BDFF"/>
<path d="M229.653 392.854C228.334 390.943 226.943 388.741 227.033 386.219C228.003 376.177 234.515 373.526 242.648 375.465C242.296 367.701 243.955 358.53 250.948 354.956C256.054 352.095 260.352 354.752 261.154 360.964C266.434 357.728 272.652 356.453 276.657 362.621C282.728 371.744 282.601 385.664 270.081 386.617C273.418 390.781 276.437 397.722 274.152 403.177C270.818 407.342 264.504 402.46 261.728 399.51C261.384 405.404 257.744 413.286 252.309 414.958C250.177 415.414 248.339 413.533 247.182 411.752C244.703 408.372 244.111 403.983 243.977 399.775C238.477 400.346 232.949 397.838 229.653 392.854Z" fill="#F6BDFF"/>
<path d="M239.889 808.606C238.571 806.695 237.18 804.493 237.27 801.971C238.24 791.928 244.752 789.278 252.885 791.217C252.533 783.453 254.192 774.282 261.185 770.708C266.291 767.847 270.589 770.504 271.391 776.716C276.671 773.48 282.889 772.205 286.894 778.373C292.965 787.496 292.838 801.416 280.317 802.369C283.654 806.533 286.674 813.474 284.389 818.929C281.055 823.094 274.741 818.212 271.965 815.262C271.62 821.156 267.981 829.038 262.546 830.71C260.414 831.166 258.576 829.285 257.419 827.503C254.94 824.124 254.347 819.735 254.213 815.527C248.714 816.098 243.185 813.59 239.889 808.606Z" fill="#F6BDFF"/>
<ellipse cx="10.7825" cy="6.66066" rx="10.7825" ry="6.66066" transform="matrix(0.0842661 0.996443 -0.994622 0.10357 154.856 648.145)" fill="#FFB802"/>
<ellipse cx="38.3883" cy="777.548" rx="9.725" ry="7.38358" fill="#FFB802"/>
<ellipse cx="174.538" cy="807.082" rx="9.725" ry="7.38358" fill="#FFB802"/>
<ellipse cx="135.638" cy="352.708" rx="9.725" ry="7.38358" fill="#FFB802"/>
<ellipse cx="332.185" cy="40.3255" rx="9.725" ry="7.38358" fill="#FFB802"/>
<ellipse cx="349.588" cy="785.499" rx="9.725" ry="7.38358" fill="#FFB802"/>
<ellipse cx="240.566" cy="737.222" rx="8.18947" ry="7.95155" fill="#9795FF"/>
<ellipse cx="352.147" cy="456.646" rx="8.18947" ry="7.95155" fill="#9795FF"/>
<ellipse cx="32.7578" cy="262.401" rx="8.18947" ry="7.95155" fill="#9795FF"/>
<ellipse cx="224.187" cy="223.779" rx="8.18947" ry="7.95155" fill="#9795FF"/>
<ellipse cx="6.63131" cy="5.56945" rx="6.63131" ry="5.56945" transform="matrix(-0.594137 0.804364 -0.739784 -0.672845 36.9235 625.194)" fill="#FFF597"/>
<ellipse cx="13.2913" cy="10.7974" rx="13.2913" ry="10.7974" transform="matrix(-0.234725 0.972062 -0.958528 -0.285 72.4933 85.2065)" fill="#FD97FF"/>
<ellipse cx="12.2326" cy="11.7446" rx="12.2326" ry="11.7446" transform="matrix(-0.919646 -0.392749 0.327683 -0.944788 266.12 544.562)" fill="#FD97FF"/>
<ellipse cx="12.2326" cy="11.7446" rx="12.2326" ry="11.7446" transform="matrix(-0.919646 -0.392749 0.327683 -0.944788 140.223 583.866)" fill="#FD97FF"/>
<ellipse cx="325.5" cy="310.412" rx="5.63026" ry="6.81561" fill="#FFF5F5"/>
<ellipse cx="311.169" cy="613.706" rx="5.63026" ry="6.81561" fill="#FFF5F5"/>
<ellipse cx="254.866" cy="383.111" rx="5.63026" ry="6.81561" fill="#FFF5F5"/>
<ellipse cx="265.103" cy="798.863" rx="5.63026" ry="6.81561" fill="#FFF5F5"/>
<ellipse cx="291.238" cy="706.552" rx="7.67763" ry="7.95155" fill="#FFF5F5"/>
<ellipse cx="8.4288" cy="7.25864" rx="8.4288" ry="7.25864" transform="matrix(-0.305854 0.952078 -0.929892 -0.367832 59.395 453.332)" fill="#FFF5F5"/>
<ellipse cx="7.68124" cy="7.94851" rx="7.68124" ry="7.94851" transform="matrix(-0.997496 -0.0707254 0.0574871 -0.998346 231.308 91.4673)" fill="#FFF5F5"/>
</g>
</svg>
